<?xml version="1.0" encoding="utf-8"?>
<!-- Generator: Adobe Illustrator 16.0.0, SVG Export Plug-In . SVG Version: 6.00 Build 0)  -->
<!DOCTYPE svg PUBLIC "-//W3C//DTD SVG 1.1//EN" "http://www.w3.org/Graphics/SVG/1.1/DTD/svg11.dtd">
<svg version="1.1" id="Capa_1" xmlns="http://www.w3.org/2000/svg" xmlns:xlink="http://www.w3.org/1999/xlink" x="0px" y="0px"
	 width="560px" height="100px" viewBox="0 0 560 100" enable-background="new 0 0 560 100" xml:space="preserve">
<g>
	<path fill="#DD2B19" d="M128.181,60.805l-5.151,5.15h-12.912v7.693h2.542v10.304H97.272V73.648h2.542v-25.69h-2.542V37.722h25.757
		l5.151,5.084V60.805z M117.877,47.958h-7.76v7.694h7.76V47.958z M156.346,83.952h-19.938l-5.084-5.152V42.873l5.084-5.15h19.938
		l5.152,5.15V78.8L156.346,83.952z M151.195,47.958h-9.567v25.757h9.567V47.958z M197.49,83.952h-14.249V73.716h2.073v-7.761h-7.96
		v7.761h2.542v10.236H164.44V73.716h2.61V47.958h-2.61V37.722h26.026l5.152,5.15v15.389l-2.543,2.543l2.543,2.608v10.303h1.871
		V83.952z M185.314,47.958h-7.96v7.759h7.96V47.958z M233.284,83.952h-14.251V73.716h2.075v-7.761h-7.961v7.761h2.541v10.236
		h-15.455V73.716h2.61V47.958h-2.61V37.722h26.025l5.152,5.15v15.389l-2.542,2.543l2.542,2.608v10.303h1.874V83.952z
		 M221.108,47.958h-7.961v7.759h7.961V47.958z M271.484,83.952h-15.388V73.716h2.542l-0.535-2.61h-9.166l-0.536,2.61h2.542v10.236
		h-15.388V73.716h2.542l5.487-25.757h-2.943V37.722h25.69v10.236h-2.877l5.485,25.757h2.543V83.952z M255.896,60.805l-2.408-11.107
		l-2.342,11.107H255.896z"/>
	<path fill-rule="evenodd" clip-rule="evenodd" d="M98.826,28.51c-0.729,0.506-1.48,0.987-2.186,1.526
		c-2.381,1.82-4.599,3.92-7.175,5.397c-1.509,0.865-3.698,1.32-5.376,0.973c-5.398-1.117-10.679-2.788-16.049-4.058
		c-3.526-0.833-5.741-3.082-7.361-6.073c-1.89-3.489-3.755-6.999-5.433-10.593c-0.479-1.025-0.707-2.556-0.294-3.539
		c1.222-2.92,2.821-5.681,4.266-8.493c14.902,0.252,26.673,6.653,36.786,16.805C88.165,5.677,65.122-2.785,46.151,1.529
		C24.732,6.398,9.045,24.65,7.46,46.549c-1.6,22.094,11.376,42.123,32.52,50.192c16.607,6.338,40.774,1.687,49.533-9.629
		c-1.167,0.729-2.249,1.354-3.278,2.054c-6.272,4.277-13.21,6.631-20.678,7.977c-5.953,1.072-9.834-5.559-7.793-10.149
		C61.124,79.441,65,72.635,74.036,70.744c3.204-0.67,6.286-1.918,9.43-2.88c1.814-0.554,3.644-1.061,5.244-1.522
		c-0.092-5.789,0.058-11.214-0.322-16.602c-0.498-7.063,1.762-12.63,7.566-16.796c1.369-0.983,2.393-2.447,3.575-3.69
		C99.295,29.005,99.061,28.757,98.826,28.51z M50.976,15.512c1.164,0.329,2.37,1.337,3.05,2.364c1.22,1.844,2.076,3.932,3.048,5.936
		c2.611,5.382,2.793,10.511-1.185,15.473c-3.021,3.77-5.654,7.85-8.682,11.614c-0.779,0.968-2.422,1.812-3.63,1.763
		c-4.522-0.184-9.028-0.76-13.911-1.225c-2.384-5.498-4.863-10.739-6.874-16.154c-0.567-1.526-0.107-3.684,0.47-5.347
		C27.298,18.326,39.141,12.169,50.976,15.512z M31.593,12.161c0.354,0.166,0.707,0.332,1.06,0.496
		c-0.641,1.516-1.053,3.188-1.964,4.517c-2.822,4.113-6.073,7.946-8.706,12.171c-2.581,4.139-2.634,4.53-7.437,5.569
		C18.059,25.317,23.538,17.762,31.593,12.161z M16.73,68.856c4.981,6.314,9.963,12.628,14.859,18.835
		C27.3,86.556,18.659,75.636,16.73,68.856z M60.965,76.657c-1.917,4.379-4.354,8.532-6.742,13.055
		c-6.336-0.346-12.031-0.102-17.459-1.191c-2.637-0.528-5.143-3.24-7.053-5.515c-3.16-3.765-5.791-7.972-8.64-11.997
		c-1.389-1.961-1.431-3.869,0.024-5.877c2.828-3.904,5.567-7.872,8.497-12.033c5.036,0.599,9.951,0.991,14.782,1.86
		c1.753,0.315,3.712,1.416,4.871,2.764c3.897,4.536,7.608,9.25,11.082,14.116C61.181,73.035,61.534,75.357,60.965,76.657z"/>
	<path d="M274.227,83.952V73.648h2.608v-25.69h-2.608V37.654h31.176v15.455h-10.304v-5.151h-7.961v7.694h9.969v10.303h-9.969v7.693
		h7.961v-5.151h10.304v15.455H274.227z M343.338,47.958h-2.546V78.8l-5.148,5.152h-19.135l-5.152-5.152V47.958h-2.542V37.654h15.387
		v10.304h-2.542v25.69h8.832v-25.69h-2.542V37.654h15.389V47.958z M379.33,83.952h-14.251V73.716h2.073v-7.761h-7.96v7.761h2.542
		v10.236h-15.455V73.716h2.61V47.958h-2.61V37.722h26.025l5.152,5.15v15.389l-2.542,2.543l2.542,2.608v10.303h1.873V83.952z
		 M367.152,47.958h-7.96v7.759h7.96V47.958z M407.294,83.952h-19.938l-5.084-5.152V42.873l5.084-5.15h19.938l5.152,5.15V78.8
		L407.294,83.952z M402.144,47.958h-9.567v25.757h9.567V47.958z M441.882,83.952h-21.141l-5.152-5.152V42.873l5.152-5.15h21.141
		l5.152,5.15v10.237h-10.303v-5.151h-10.838v25.757h10.838v-5.152h10.303V78.8L441.882,83.952z M475.2,83.952h-19.937L450.18,78.8
		V42.873l5.084-5.15H475.2l5.152,5.15V78.8L475.2,83.952z M470.048,47.958h-9.566v25.757h9.566V47.958z M514.27,60.805l-5.149,5.15
		h-12.913v7.693h2.542v10.304H483.36V73.648h2.542v-25.69h-2.542V37.722h25.76l5.149,5.084V60.805z M503.968,47.958h-7.761v7.694
		h7.761V47.958z M552.673,83.952h-15.389V73.716h2.542l-0.534-2.61h-9.166l-0.536,2.61h2.542v10.236h-15.386V73.716h2.542
		l5.487-25.757h-2.945V37.722h25.69v10.236h-2.877l5.487,25.757h2.542V83.952z M537.083,60.805l-2.406-11.107l-2.344,11.107H537.083
		z"/>
</g>
</svg>
