<?xml version="1.0" encoding="utf-8"?>
<!-- Generator: Adobe Illustrator 16.0.0, SVG Export Plug-In . SVG Version: 6.00 Build 0)  -->
<!DOCTYPE svg PUBLIC "-//W3C//DTD SVG 1.1//EN" "http://www.w3.org/Graphics/SVG/1.1/DTD/svg11.dtd">
<svg width="32px" height="32px" viewBox="0 0 32 32">
	<g>
		<g>
			<circle fill="#C60B1E" cx="16" cy="16" r="14"/>
		</g>
		<path fill="#FFC400" d="M2,16c0,2.553,0.694,4.938,1.887,6.999h24.226C29.306,20.938,30,18.553,30,16c0-2.553-0.694-4.939-1.888-7
		H3.888C2.694,11.061,2,13.447,2,16z"/>
	</g>
	<path fill="#FFFFFF" d="M16,0C7.163,0,0,7.164,0,16c0,8.838,7.163,16,16,16s16-7.162,16-16C32,7.164,24.837,0,16,0z M16,29.833
	C8.36,29.833,2.167,23.642,2.167,16C2.167,8.36,8.36,2.167,16,2.167c7.641,0,13.833,6.193,13.833,13.833
	C29.833,23.642,23.641,29.833,16,29.833z"/>
</svg>
