<?xml version="1.0" encoding="utf-8"?>
<!-- Generator: Adobe Illustrator 16.0.0, SVG Export Plug-In . SVG Version: 6.00 Build 0)  -->
<!DOCTYPE svg PUBLIC "-//W3C//DTD SVG 1.1//EN" "http://www.w3.org/Graphics/SVG/1.1/DTD/svg11.dtd">
<svg width="32px" height="32px" viewBox="0 0 32 32">
	<circle fill="#00247D" cx="16" cy="16" r="14"/>
	<path fill="#FFFFFF" d="M26.924,7.256l-7.794,4.676V2.363C18.122,2.133,17.077,2,16,2c-1.078,0-2.122,0.133-3.13,0.363v9.568
		L5.076,7.256C4.295,8.23,3.638,9.31,3.138,10.473l3.998,2.398H2.363C2.133,13.879,2,14.923,2,16c0,1.078,0.133,2.122,0.364,3.13
		h4.77l-3.996,2.397c0.5,1.164,1.157,2.242,1.938,3.218l7.794-4.676v9.567C13.878,29.867,14.922,30,16,30
		c1.077,0,2.122-0.133,3.13-0.363v-9.567l7.794,4.675c0.781-0.975,1.438-2.054,1.938-3.217l-3.995-2.397h4.77
		C29.867,18.122,30,17.078,30,16c0-1.077-0.133-2.121-0.363-3.129h-4.771l3.996-2.398C28.362,9.31,27.705,8.231,26.924,7.256z"/>
	<path fill="#CF142B" d="M17.877,2.141C17.262,2.058,16.638,2,16,2c-0.639,0-1.262,0.058-1.878,0.141v11.982H2.14
		C2.058,14.738,2,15.362,2,16c0,0.639,0.058,1.262,0.141,1.878h11.981v11.981C14.738,29.942,15.361,30,16,30
		c0.638,0,1.262-0.058,1.877-0.141V17.878h11.982C29.942,17.262,30,16.639,30,16c0-0.638-0.058-1.262-0.141-1.877H17.877V2.141z"/>

	<path fill="#FFFFFF" d="M16,0C7.163,0,0,7.164,0,16c0,8.838,7.163,16,16,16s16-7.162,16-16C32,7.164,24.837,0,16,0z M16,29.833
	C8.36,29.833,2.167,23.642,2.167,16C2.167,8.36,8.36,2.167,16,2.167c7.641,0,13.833,6.193,13.833,13.833
	C29.833,23.642,23.641,29.833,16,29.833z"/>
</svg>
